# xmcd
#
# Track frame offsets: 
#        150
#        15180
#        33045
#        48457
#        64665
#        78927
#        92667
#        110760
#        121702
#        134657
#        150012
#        164977
#        179160
#        195185
#        212200
#        224485
#        238635
#        254127
#        269395
#        285160
#        307320
#        322275
#
# Disc length: 4459 seconds
#
# Revision: 3
# Processed by: cddbd v1.5.2PL0 Copyright (c) Steve Scherf et al.
# Submitted via: ExactAudioCopyFreeDBPlugin 1.0
#
DISCID=43116916
DTITLE=Various Artist - テレビ時代劇主題歌コレクション
DYEAR=2003
DGENRE=Soundtrack
TTITLE0=上条恒彦 - だれかが風の中で
TTITLE1=やしきたかじん - 焼けた道
TTITLE2=小室等 - かげろうの歌
TTITLE3=五木ひろし - 狼のバラード
TTITLE4=里見浩太朗 - 微笑みをすてる時
TTITLE5=松方弘樹 - 傷ついても
TTITLE6=天知茂 - ふたりづれ
TTITLE7=松山容子 - 旅がらすお仙のうた
TTITLE8=上条恒彦 - 天下堂々
TTITLE9=みなみらんぼう - 野を渡る風のように
TTITLE10=ドド - 都忘れ
TTITLE11=ドド - 今日も日暮れて
TTITLE12=橋幸夫 - 向こう通るは
TTITLE13=橋幸夫 - 江戸の花
TTITLE14=三橋美智也 - 新撰組の歌
TTITLE15=春日八郎 - 新撰組の旗は行く
TTITLE16=伊勢功一 - ひとり旅
TTITLE17=清水京子 - 明日への旅人
TTITLE18=今陽子 - みちづれ
TTITLE19=勝新太郎 - おてんとさん
TTITLE20=出門英 - いつの日か人に語ろう
TTITLE21=藤木竜 - 愛は夕日に燃えて
EXTD=
EXTT0=
EXTT1=
EXTT2=
EXTT3=
EXTT4=
EXTT5=
EXTT6=
EXTT7=
EXTT8=
EXTT9=
EXTT10=
EXTT11=
EXTT12=
EXTT13=
EXTT14=
EXTT15=
EXTT16=
EXTT17=
EXTT18=
EXTT19=
EXTT20=
EXTT21=
PLAYORDER=
